<svg width="24" height="24" viewBox="0 0 17 17" fill="none" xmlns="http://www.w3.org/2000/svg">
<mask id="path-1-inside-1_27_2" fill="white">
<path d="M10.5038 11.5053L8.50031 13.5087C7.80745 14.2016 6.97267 14.5479 5.99598 14.5475C5.01929 14.5472 4.18451 14.2009 3.49164 13.5087C2.79878 12.8165 2.45251 11.9818 2.45284 11.0044C2.45318 10.027 2.79944 9.19226 3.49164 8.50006L5.49511 6.49659L6.49685 7.49832L4.49338 9.50179C4.07599 9.91918 3.86729 10.42 3.86729 11.0044C3.86729 11.5887 4.07599 12.0896 4.49338 12.507C4.91077 12.9244 5.41163 13.1331 5.99598 13.1331C6.58032 13.1331 7.08119 12.9244 7.49858 12.507L9.50205 10.5035L10.5038 11.5053ZM6.99771 11.0044L5.99598 10.0027L10.0029 5.99572L11.0047 6.99746L6.99771 11.0044ZM11.5055 10.5035L10.5038 9.50179L12.5073 7.49832C12.9246 7.08093 13.1333 6.58007 13.1333 5.99572C13.1333 5.41138 12.9246 4.91051 12.5073 4.49312C12.0899 4.07573 11.589 3.86704 11.0047 3.86704C10.4203 3.86704 9.91944 4.07573 9.50205 4.49312L7.49858 6.49659L6.49685 5.49485L8.50032 3.49138C9.19318 2.79852 10.0281 2.45209 11.0052 2.45209C11.9822 2.45208 12.8168 2.79852 13.509 3.49138C14.2012 4.18425 14.5476 5.0192 14.5483 5.99622C14.549 6.97325 14.2025 7.80786 13.509 8.50006L11.5055 10.5035Z"/>
</mask>
<path d="M10.5038 11.5053L11.5644 12.5659L12.6251 11.5053L11.5644 10.4446L10.5038 11.5053ZM5.49511 6.49659L6.55577 5.43593L5.49511 4.37527L4.43445 5.43593L5.49511 6.49659ZM6.49685 7.49832L7.55751 8.55898L8.61817 7.49832L7.55751 6.43766L6.49685 7.49832ZM9.50205 10.5035L10.5627 9.44287L9.50205 8.38221L8.44139 9.44287L9.50205 10.5035ZM6.99771 11.0044L5.93705 12.0651L6.99771 13.1257L8.05837 12.0651L6.99771 11.0044ZM5.99598 10.0027L4.93532 8.942L3.87466 10.0027L4.93532 11.0633L5.99598 10.0027ZM10.0029 5.99572L11.0636 4.93506L10.0029 3.8744L8.94226 4.93506L10.0029 5.99572ZM11.0047 6.99746L12.0653 8.05812L13.126 6.99746L12.0653 5.9368L11.0047 6.99746ZM11.5055 10.5035L10.4449 11.5642L11.5055 12.6248L12.5662 11.5642L11.5055 10.5035ZM10.5038 9.50179L9.44312 8.44113L8.38246 9.50179L9.44312 10.5625L10.5038 9.50179ZM7.49858 6.49659L6.43792 7.55725L7.49858 8.61791L8.55924 7.55725L7.49858 6.49659ZM6.49685 5.49485L5.43619 4.43419L4.37553 5.49485L5.43619 6.55551L6.49685 5.49485ZM13.509 8.50006L12.4493 7.43837L12.4483 7.4394L13.509 8.50006ZM10.5038 11.5053L9.44312 10.4446L7.43965 12.4481L8.50031 13.5087L9.56097 14.5694L11.5644 12.5659L10.5038 11.5053ZM8.50031 13.5087L7.43965 12.4481C7.02719 12.8605 6.57373 13.0477 5.99649 13.0475L5.99598 14.5475L5.99547 16.0475C7.37161 16.048 8.58771 15.5427 9.56097 14.5694L8.50031 13.5087ZM5.99598 14.5475L5.99649 13.0475C5.41843 13.0473 4.96439 12.8598 4.55179 12.4476L3.49164 13.5087L2.43149 14.5699C3.40462 15.5421 4.62014 16.0471 5.99547 16.0475L5.99598 14.5475ZM3.49164 13.5087L4.55179 12.4476C4.14001 12.0362 3.95265 11.5831 3.95284 11.0049L2.45284 11.0044L0.952843 11.0039C0.952373 12.3804 1.45754 13.5969 2.43149 14.5699L3.49164 13.5087ZM2.45284 11.0044L3.95284 11.0049C3.95304 10.4259 4.14078 9.97224 4.5523 9.56072L3.49164 8.50006L2.43098 7.4394C1.45811 8.41227 0.953313 9.62816 0.952843 11.0039L2.45284 11.0044ZM3.49164 8.50006L4.5523 9.56072L6.55577 7.55725L5.49511 6.49659L4.43445 5.43593L2.43098 7.4394L3.49164 8.50006ZM5.49511 6.49659L4.43445 7.55725L5.43619 8.55898L6.49685 7.49832L7.55751 6.43766L6.55577 5.43593L5.49511 6.49659ZM6.49685 7.49832L5.43619 6.43766L3.43272 8.44113L4.49338 9.50179L5.55404 10.5625L7.55751 8.55898L6.49685 7.49832ZM4.49338 9.50179L3.43272 8.44113C2.73723 9.13662 2.36729 10.0177 2.36729 11.0044L3.86729 11.0044L5.36729 11.0044C5.36729 10.8224 5.41474 10.7017 5.55404 10.5625L4.49338 9.50179ZM3.86729 11.0044L2.36729 11.0044C2.36729 11.9911 2.73723 12.8722 3.43272 13.5677L4.49338 12.507L5.55404 11.4463C5.41474 11.307 5.36729 11.1864 5.36729 11.0044L3.86729 11.0044ZM4.49338 12.507L3.43272 13.5677C4.1282 14.2631 5.00929 14.6331 5.99598 14.6331L5.99598 13.1331L5.99598 11.6331C5.81397 11.6331 5.69333 11.5856 5.55404 11.4463L4.49338 12.507ZM5.99598 13.1331L5.99598 14.6331C6.98267 14.6331 7.86376 14.2631 8.55924 13.5677L7.49858 12.507L6.43792 11.4463C6.29862 11.5856 6.17798 11.6331 5.99598 11.6331L5.99598 13.1331ZM7.49858 12.507L8.55924 13.5677L10.5627 11.5642L9.50205 10.5035L8.44139 9.44287L6.43792 11.4463L7.49858 12.507ZM9.50205 10.5035L8.44139 11.5642L9.44312 12.5659L10.5038 11.5053L11.5644 10.4446L10.5627 9.44287L9.50205 10.5035ZM6.99771 11.0044L8.05837 9.94373L7.05664 8.942L5.99598 10.0027L4.93532 11.0633L5.93705 12.0651L6.99771 11.0044ZM5.99598 10.0027L7.05664 11.0633L11.0636 7.05638L10.0029 5.99572L8.94226 4.93506L4.93532 8.942L5.99598 10.0027ZM10.0029 5.99572L8.94226 7.05638L9.94399 8.05812L11.0047 6.99746L12.0653 5.9368L11.0636 4.93506L10.0029 5.99572ZM11.0047 6.99746L9.94399 5.9368L5.93705 9.94373L6.99771 11.0044L8.05837 12.0651L12.0653 8.05812L11.0047 6.99746ZM11.5055 10.5035L12.5662 9.44287L11.5644 8.44113L10.5038 9.50179L9.44312 10.5625L10.4449 11.5642L11.5055 10.5035ZM10.5038 9.50179L11.5644 10.5625L13.5679 8.55898L12.5073 7.49832L11.4466 6.43766L9.44312 8.44113L10.5038 9.50179ZM12.5073 7.49832L13.5679 8.55898C14.2634 7.8635 14.6333 6.98241 14.6333 5.99572L13.1333 5.99572L11.6333 5.99572C11.6333 6.17772 11.5859 6.29837 11.4466 6.43766L12.5073 7.49832ZM13.1333 5.99572L14.6333 5.99572C14.6333 5.00903 14.2634 4.12794 13.5679 3.43246L12.5073 4.49312L11.4466 5.55378C11.5859 5.69307 11.6333 5.81372 11.6333 5.99572L13.1333 5.99572ZM12.5073 4.49312L13.5679 3.43246C12.8724 2.73698 11.9913 2.36704 11.0047 2.36704L11.0047 3.86704L11.0047 5.36704C11.1867 5.36704 11.3073 5.41448 11.4466 5.55378L12.5073 4.49312ZM11.0047 3.86704L11.0047 2.36704C10.018 2.36704 9.13687 2.73697 8.44139 3.43246L9.50205 4.49312L10.5627 5.55378C10.702 5.41448 10.8226 5.36704 11.0047 5.36704L11.0047 3.86704ZM9.50205 4.49312L8.44139 3.43246L6.43792 5.43593L7.49858 6.49659L8.55924 7.55725L10.5627 5.55378L9.50205 4.49312ZM7.49858 6.49659L8.55924 5.43593L7.55751 4.43419L6.49685 5.49485L5.43619 6.55551L6.43792 7.55725L7.49858 6.49659ZM6.49685 5.49485L7.55751 6.55551L9.56098 4.55204L8.50032 3.49138L7.43965 2.43072L5.43619 4.43419L6.49685 5.49485ZM8.50032 3.49138L9.56098 4.55204C9.97346 4.13956 10.4272 3.95209 11.0052 3.95209L11.0052 2.45209L11.0052 0.952085C9.629 0.952085 8.41291 1.45747 7.43965 2.43072L8.50032 3.49138ZM11.0052 2.45209L11.0052 3.95209C11.583 3.95208 12.0362 4.13952 12.4478 4.55153L13.509 3.49138L14.5702 2.43124C13.5974 1.45752 12.3813 0.952085 11.0052 0.952085L11.0052 2.45209ZM13.509 3.49138L12.4478 4.55153C12.86 4.96415 13.0479 5.41852 13.0483 5.99725L14.5483 5.99622L16.0483 5.9952C16.0473 4.61987 15.5423 3.40435 14.5702 2.43124L13.509 3.49138ZM14.5483 5.99622L13.0483 5.99725C13.0487 6.57429 12.8616 7.02689 12.4494 7.43838L13.509 8.50006L14.5686 9.56174C15.5434 8.58882 16.0492 7.3722 16.0483 5.9952L14.5483 5.99622ZM13.509 8.50006L12.4483 7.4394L10.4449 9.44287L11.5055 10.5035L12.5662 11.5642L14.5696 9.56072L13.509 8.50006Z" fill="#048271" mask="url(#path-1-inside-1_27_2)"/>
</svg>
