
<svg width="30" height="31" viewBox="0 0 30 31" fill="none" xmlns="http://www.w3.org/2000/svg">
<path d="M3.14092 15.4936C3.14092 16.1471 3.59306 16.6239 4.24609 16.6239H20.782L23.4563 16.5232L19.3382 20.2775L16.5257 23.1404C16.3248 23.3413 16.2241 23.6423 16.2241 23.9311C16.2241 24.5589 16.7009 25.0239 17.317 25.0239C17.6181 25.0239 17.8816 24.9104 18.1329 24.672L26.4825 16.3357C26.7332 16.0968 26.8591 15.808 26.8591 15.4946C26.8591 15.193 26.7332 14.9043 26.4825 14.6654L18.1329 6.32857C17.8811 6.09018 17.6181 5.97714 17.3165 5.97714C16.7015 5.97714 16.2241 6.44161 16.2241 7.05661C16.2241 7.35821 16.3248 7.65929 16.5257 7.86018L19.3382 10.7102L23.4686 14.4773L20.782 14.3766H4.24609C3.59306 14.3766 3.14092 14.8405 3.14092 15.4936Z" fill="#27548A" stroke="#27548A" stroke-width="3"/>
</svg>
