<svg width="40" height="40" viewBox="0 0 40 40" fill="none" xmlns="http://www.w3.org/2000/svg">
<path d="M1.66675 1.66667H18.3334V18.3333H1.66675V1.66667ZM5.00008 5V15H15.0001V5H5.00008Z" fill="#DDA853"/>
<path fill-rule="evenodd" clip-rule="evenodd" d="M8.33325 8.33333H11.6666V11.6667H8.33325V8.33333Z" fill="#27548A"/>
<path d="M21.6667 1.66667H38.3334V18.3333H21.6667V1.66667ZM25.0001 5V15H35.0001V5H25.0001Z" fill="#DDA853"/>
<path fill-rule="evenodd" clip-rule="evenodd" d="M28.3333 8.33333H31.6666V11.6667H28.3333V8.33333Z" fill="#27548A"/>
<path d="M1.66675 21.6667H18.3334V38.3333H1.66675V21.6667ZM5.00008 25V35H15.0001V25H5.00008Z" fill="#DDA853"/>
<path fill-rule="evenodd" clip-rule="evenodd" d="M8.33325 28.3333H11.6666V31.6667H8.33325V28.3333Z" fill="#27548A"/>
<path d="M38.3334 31.6667H31.6667V38.3333H21.6667V21.6667V31.6667H25.0001V35H28.3334V25H25.0001V21.6667H23.3334H28.3334V25H31.6667V28.3333H35.0001V21.6667H38.3334V31.6667ZM38.3334 35V38.3333H35.0001V35H38.3334Z" fill="#27548A"/>
</svg>
