<svg width="236" height="258" viewBox="0 0 236 258" fill="none" xmlns="http://www.w3.org/2000/svg">
<g clip-path="url(#clip0_8_343)">
<path d="M53.8793 200.723C59.481 193.994 57.6086 190.606 60.0942 187.62C60.6631 186.937 61.2259 186.552 62.409 186.012L70.7386 182.591C71.7325 182.201 72.6017 181.889 73.3462 181.655L73.5258 181.44C71.1917 178.094 70.356 175.146 70.8346 171.643L70.6205 171.465L59.436 176.045C55.9427 177.462 54.6451 176.75 51.4419 174.083C43.3095 167.313 31.4432 168.398 24.7323 176.46C18.053 184.484 19.203 196.345 27.2976 203.084C35.3592 209.795 47.1999 208.747 53.8793 200.723ZM48.0113 195.838C44.0876 200.552 36.9594 201.137 32.2097 197.183C27.3514 193.139 26.7079 186.084 30.6315 181.371C34.6759 176.512 41.7015 175.903 46.5582 179.946C47.7 180.892 48.6437 182.055 49.335 183.367C50.0264 184.678 50.4518 186.114 50.5868 187.591C50.7218 189.067 50.5638 190.556 50.1218 191.971C49.6799 193.387 48.9626 194.701 48.0113 195.838ZM94.8263 234.809C101.537 226.748 100.45 214.88 92.3197 208.112C89.3322 205.625 88.2655 204.491 88.9042 201.309L107.24 113.495C100.615 110.478 94.7974 115.564 90.5412 127.191L76.0049 167.117C73.9597 172.723 74.5539 176.326 77.5592 180.838L79.5883 183.743C81.0095 185.84 81.2567 187.446 80.3586 191.452L78.6376 199.521C78.3554 200.812 78.0792 201.435 77.5102 202.118C75.0247 205.104 71.319 203.848 65.7172 210.578C59.0379 218.601 60.1533 230.434 68.177 237.114C76.2732 243.853 88.1486 242.835 94.8279 234.811M87.1292 174.975C85.7816 176.594 83.2828 176.89 81.6277 175.512C79.9001 174.074 79.772 171.592 81.1197 169.973C82.4975 168.318 84.9617 167.993 86.6893 169.432C88.3444 170.809 88.5071 173.32 87.1292 174.975ZM131.454 161.249C142.319 155.003 146.061 148.31 141.749 142.222L101.893 158.631L97.3308 179.996L97.7623 180.356L131.454 161.249ZM88.9271 229.899C85.0034 234.612 77.9476 235.257 73.0892 231.213C68.3395 227.259 67.6582 220.173 71.5819 215.46C75.6262 210.601 82.688 210.023 87.4377 213.976C92.2961 218.021 92.9714 225.04 88.9271 229.899Z" fill="black" fill-opacity="0.1"/>
</g>
<path d="M131.166 81.5721C130.664 81.1545 130.086 80.8397 129.462 80.6458C128.839 80.452 128.184 80.3828 127.534 80.4422C126.884 80.5016 126.252 80.6885 125.674 80.9922C125.097 81.2959 124.584 81.7104 124.167 82.2121C123.328 83.2266 122.924 84.5321 123.044 85.8435C123.163 87.1549 123.797 88.3655 124.807 89.211L135.784 98.3462L135.945 98.4947C137.539 99.827 140.259 99.1986 142.021 97.0919C143.784 94.9883 143.921 92.2017 142.331 90.8691L142.179 90.7512L142.184 90.7413L131.166 81.5721ZM179.295 83.8115C180.077 83.5373 180.718 82.9636 181.078 82.2166C181.437 81.4696 181.485 80.6105 181.21 79.8283C180.936 79.0461 180.363 78.4048 179.616 78.0456C178.869 77.6863 178.009 77.6386 177.227 77.9127L168.276 81.7437C167.494 82.0179 166.853 82.5915 166.494 83.3385C166.316 83.7084 166.212 84.1097 166.19 84.5195C166.167 84.9293 166.225 85.3395 166.361 85.7268C166.497 86.1142 166.707 86.4709 166.981 86.7768C167.255 87.0827 167.586 87.3317 167.956 87.5096C168.325 87.6875 168.727 87.7907 169.137 87.8135C169.546 87.8363 169.957 87.7782 170.344 87.6424L179.295 83.8115ZM175.583 59.9346C175.9 60.1962 176.162 60.5179 176.354 60.8811C176.545 61.2443 176.663 61.642 176.701 62.051C176.738 62.4601 176.694 62.8725 176.572 63.2645C176.449 63.6565 176.25 64.0203 175.986 64.335L164.614 77.927C164.078 78.5633 163.314 78.9626 162.486 79.0384C161.658 79.1141 160.833 78.86 160.191 78.3313C159.875 78.0697 159.613 77.7481 159.421 77.3848C159.229 77.0216 159.111 76.624 159.074 76.2149C159.037 75.8058 159.08 75.3934 159.203 75.0014C159.326 74.6094 159.525 74.2456 159.789 73.9309L171.161 60.339C171.696 59.7027 172.461 59.3033 173.289 59.2276C174.117 59.1519 174.942 59.4059 175.583 59.9346ZM157.609 61.5216C157.721 60.7214 157.52 59.9091 157.049 59.253C156.577 58.597 155.871 58.1476 155.077 57.9982C154.283 57.8488 153.462 58.0108 152.785 58.4505C152.107 58.8903 151.624 59.5741 151.437 60.36L149.306 71.5381C149.194 72.3382 149.395 73.1506 149.867 73.8066C150.338 74.4627 151.044 74.912 151.838 75.0614C152.632 75.2109 153.453 75.0489 154.131 74.6091C154.808 74.1694 155.291 73.4856 155.478 72.6996L157.609 61.5216ZM135.807 140.981C135.403 140.905 135.018 140.751 134.674 140.527C134.33 140.303 134.033 140.013 133.801 139.674C133.569 139.335 133.406 138.953 133.321 138.551C133.237 138.149 133.232 137.734 133.308 137.331L135.437 126.153C135.624 125.367 136.106 124.683 136.784 124.243C137.462 123.804 138.283 123.642 139.077 123.791C139.871 123.94 140.577 124.39 141.048 125.046C141.519 125.702 141.72 126.514 141.609 127.314L139.477 138.492C139.155 140.185 137.509 141.302 135.807 140.981ZM114.929 134.517C114.665 134.832 114.466 135.196 114.343 135.588C114.22 135.98 114.176 136.392 114.214 136.801C114.251 137.21 114.369 137.608 114.561 137.971C114.753 138.335 115.015 138.656 115.331 138.918C115.973 139.446 116.797 139.701 117.625 139.625C118.453 139.549 119.218 139.15 119.753 138.513L131.126 124.921C131.39 124.607 131.589 124.243 131.711 123.851C131.834 123.459 131.878 123.047 131.841 122.638C131.803 122.228 131.685 121.831 131.493 121.468C131.302 121.104 131.04 120.783 130.723 120.521C130.082 119.993 129.258 119.74 128.431 119.815C127.603 119.891 126.839 120.29 126.304 120.925L114.929 134.517ZM109.687 119.024C109.552 118.636 109.494 118.224 109.518 117.814C109.542 117.403 109.647 117.001 109.826 116.631C110.006 116.261 110.257 115.93 110.565 115.657C110.872 115.384 111.231 115.175 111.62 115.041L120.571 111.21C120.958 111.074 121.368 111.016 121.778 111.038C122.188 111.061 122.589 111.164 122.959 111.342C123.329 111.519 123.661 111.768 123.935 112.074C124.208 112.38 124.419 112.737 124.555 113.124C124.691 113.511 124.75 113.921 124.727 114.331C124.704 114.741 124.601 115.143 124.424 115.513C124.246 115.883 123.997 116.214 123.691 116.488C123.385 116.762 123.029 116.972 122.641 117.108L113.687 120.94C112.903 121.215 112.041 121.168 111.291 120.809C110.541 120.45 109.964 119.808 109.687 119.024Z" fill="black" fill-opacity="0.1"/>
<g clip-path="url(#clip1_8_343)">
<path d="M114.409 62.5361L119.212 66.5347C121.335 68.3022 122.67 70.8408 122.921 73.592C123.173 76.3432 122.321 79.0816 120.554 81.2049C118.786 83.3282 116.247 84.6623 113.496 84.9139C110.745 85.1655 108.007 84.3138 105.883 82.5463L101.08 78.5477M94.6753 73.2161L89.8718 69.2175C87.7485 67.45 86.4144 64.9114 86.1628 62.1602C85.9113 59.409 86.7629 56.6706 88.5304 54.5473C90.2979 52.424 92.8365 51.0899 95.5877 50.8383C98.3389 50.5867 101.077 51.4384 103.201 53.2059L108.004 57.2045M98.1374 62.5446L110.947 73.2076" stroke="black" stroke-opacity="0.1" stroke-width="5" stroke-linecap="round" stroke-linejoin="round"/>
</g>
<g clip-path="url(#clip2_8_343)">
<path d="M171.833 108.498L176.636 112.497C178.759 114.264 180.093 116.803 180.345 119.554C180.597 122.305 179.745 125.044 177.977 127.167C176.21 129.29 173.671 130.625 170.92 130.876C168.169 131.128 165.43 130.276 163.307 128.508L158.504 124.51M152.099 119.178L147.296 115.18C145.172 113.412 143.838 110.874 143.587 108.122C143.335 105.371 144.187 102.633 145.954 100.509C147.722 98.3862 150.26 97.052 153.012 96.8005C155.763 96.5489 158.501 97.4006 160.624 99.1681L165.428 103.167M155.561 108.507L168.37 119.17" stroke="black" stroke-opacity="0.1" stroke-width="5" stroke-linecap="round" stroke-linejoin="round"/>
</g>
<g clip-path="url(#clip3_8_343)">
<path d="M74.3675 29.8684L79.1709 33.8671C81.2942 35.6346 82.6284 38.1732 82.8799 40.9244C83.1315 43.6756 82.2798 46.414 80.5123 48.5373C78.7448 50.6605 76.2062 51.9947 73.455 52.2463C70.7038 52.4978 67.9654 51.6462 65.8421 49.8787L61.0386 45.88M54.634 40.5485L49.8305 36.5499C47.7073 34.7823 46.3731 32.2438 46.1216 29.4926C45.87 26.7414 46.7216 24.0029 48.4892 21.8797C50.2567 19.7564 52.7953 18.4222 55.5464 18.1707C58.2976 17.9191 61.0361 18.7708 63.1594 20.5383L67.9628 24.5369M58.0961 29.8769L70.9054 40.54" stroke="black" stroke-opacity="0.1" stroke-width="5" stroke-linecap="round" stroke-linejoin="round"/>
</g>
<g clip-path="url(#clip4_8_343)">
<path d="M210.075 140.868L214.879 144.867C217.002 146.635 218.336 149.173 218.588 151.924C218.839 154.676 217.988 157.414 216.22 159.537C214.453 161.661 211.914 162.995 209.163 163.246C206.412 163.498 203.673 162.646 201.55 160.879L196.746 156.88M190.342 151.549L185.538 147.55C183.415 145.782 182.081 143.244 181.829 140.493C181.578 137.741 182.429 135.003 184.197 132.88C185.964 130.756 188.503 129.422 191.254 129.171C194.005 128.919 196.744 129.771 198.867 131.538L203.671 135.537M193.804 140.877L206.613 151.54" stroke="black" stroke-opacity="0.1" stroke-width="5" stroke-linecap="round" stroke-linejoin="round"/>
</g>
<defs>
<clipPath id="clip0_8_343">
<rect width="120" height="120" fill="white" transform="translate(0 180.36) rotate(-50.2244)"/>
</clipPath>
<clipPath id="clip1_8_343">
<rect width="50" height="50" fill="white" transform="translate(101.323 32.6676) rotate(39.7756)"/>
</clipPath>
<clipPath id="clip2_8_343">
<rect width="50" height="50" fill="white" transform="translate(158.747 78.6298) rotate(39.7756)"/>
</clipPath>
<clipPath id="clip3_8_343">
<rect width="50" height="50" fill="white" transform="translate(61.2815) rotate(39.7756)"/>
</clipPath>
<clipPath id="clip4_8_343">
<rect width="50" height="50" fill="white" transform="translate(196.989 111) rotate(39.7756)"/>
</clipPath>
</defs>
</svg>
