<svg width="40" height="40" viewBox="0 0 40 40" fill="none" xmlns="http://www.w3.org/2000/svg">
<path d="M15.2867 24.715L24.715 15.2867M11.75 18.8217L9.39335 21.1783C8.77427 21.7974 8.2832 22.5324 7.94816 23.3412C7.61312 24.1501 7.44067 25.017 7.44067 25.8925C7.44067 26.768 7.61312 27.6349 7.94816 28.4438C8.2832 29.2526 8.77427 29.9876 9.39335 30.6067C10.0124 31.2257 10.7474 31.7168 11.5562 32.0519C12.3651 32.3869 13.232 32.5593 14.1075 32.5593C14.983 32.5593 15.8499 32.3869 16.6588 32.0519C17.4677 31.7168 18.2026 31.2257 18.8217 30.6067L21.175 28.25M18.82 11.75L21.1767 9.39333C21.7958 8.77426 22.5307 8.28319 23.3396 7.94815C24.1484 7.61311 25.0153 7.44066 25.8908 7.44066C26.7663 7.44066 27.6333 7.61311 28.4421 7.94815C29.251 8.28319 29.9859 8.77426 30.605 9.39333C31.2241 10.0124 31.7152 10.7474 32.0502 11.5562C32.3852 12.3651 32.5577 13.232 32.5577 14.1075C32.5577 14.983 32.3852 15.8499 32.0502 16.6588C31.7152 17.4676 31.2241 18.2026 30.605 18.8217L28.2483 21.1783" stroke="#DDA853" stroke-width="4" stroke-linecap="round" stroke-linejoin="round"/>
</svg>
