<svg width="132" height="132" viewBox="0 0 132 132" fill="none" xmlns="http://www.w3.org/2000/svg">
<g clip-path="url(#clip0_5_145)">
<path d="M123.75 41.25V8.25L90.75 8.25V41.25L123.75 41.25ZM132 49.5L82.5 49.5V0L132 0V49.5ZM115.5 16.5V33L99 33V16.5H115.5ZM123.75 123.75V90.75H90.75V123.75H123.75ZM132 132H82.5L82.5 82.5H132L132 132ZM115.5 99V115.5H99V99H115.5ZM41.25 41.25V8.25L8.25 8.25V41.25H41.25ZM49.5 49.5L0 49.5V0L49.5 0V49.5ZM33 16.5V33H16.5V16.5L33 16.5ZM132 57.75V66H123.75L123.75 57.75H132ZM123.75 66V74.25H115.5L115.5 66H123.75ZM115.5 57.75V66H107.25V57.75H115.5ZM107.25 66L107.25 74.25H99V66H107.25ZM99 57.75V66H90.75V57.75H99ZM90.75 66V74.25H82.5V66H90.75ZM82.5 57.75V66L74.25 66V57.75H82.5ZM66 57.75V66H57.75V57.75H66ZM57.75 66V74.25H49.5V66H57.75ZM49.5 57.75V66H41.25V57.75L49.5 57.75ZM41.25 66V74.25H33V66H41.25ZM33 57.75V66H24.75V57.75H33ZM24.75 66V74.25H16.5V66H24.75ZM16.5 57.75V66H8.25V57.75H16.5ZM8.25 66V74.25H0V66H8.25ZM66 123.75V132H57.75V123.75H66ZM66 8.25V16.5L57.75 16.5V8.25H66ZM74.25 16.5V24.75H66V16.5H74.25ZM74.25 0V8.25L66 8.25V0L74.25 0ZM74.25 33V41.25H66V33H74.25ZM66 41.25V49.5H57.75V41.25H66ZM74.25 49.5V57.75H66L66 49.5H74.25ZM66 74.25V82.5H57.75V74.25H66ZM74.25 82.5L74.25 90.75H66V82.5H74.25ZM66 90.75V99H57.75V90.75H66ZM74.25 99V107.25H66V99H74.25ZM66 107.25V115.5H57.75V107.25H66ZM74.25 115.5V123.75H66V115.5H74.25ZM49.5 123.75V132H41.25V123.75H49.5ZM49.5 74.25V82.5H41.25V74.25H49.5ZM57.75 82.5V90.75H49.5V82.5H57.75ZM49.5 90.75V99H41.25V90.75H49.5ZM49.5 107.25V115.5H41.25V107.25H49.5ZM57.75 115.5V123.75H49.5V115.5H57.75ZM33 123.75V132H24.75V123.75H33ZM33 74.25V82.5H24.75V74.25H33ZM41.25 82.5V90.75H33V82.5H41.25ZM41.25 99V107.25H33V99H41.25ZM33 107.25V115.5H24.75V107.25H33ZM41.25 115.5V123.75H33V115.5H41.25ZM16.5 123.75V132H8.25V123.75H16.5ZM24.75 82.5V90.75H16.5V82.5H24.75ZM16.5 90.75V99H8.25V90.75H16.5ZM24.75 99V107.25H16.5V99H24.75ZM16.5 107.25V115.5H8.25V107.25H16.5ZM8.25 82.5V90.75H0V82.5H8.25ZM8.25 99V107.25H0V99H8.25ZM8.25 115.5V123.75H0V115.5H8.25Z" fill="black" fill-opacity="0.1"/>
</g>
<defs>
<clipPath id="clip0_5_145">
<rect width="132" height="132" fill="white" transform="matrix(0 1 -1 0 132 0)"/>
</clipPath>
</defs>
</svg>
