<svg width="1804" height="600" viewBox="0 0 1804 600" fill="none" xmlns="http://www.w3.org/2000/svg">
<g clip-path="url(#clip0_5_181)">
<path d="M0 535L20.0444 533.8C40.0889 532.7 80.1778 530.3 120.267 530C160.356 529.7 200.444 531.3 240.533 532.7C280.622 534 320.711 535 360.8 522.8C400.889 510.7 440.978 485.3 481.067 473.8C521.156 462.3 561.244 464.7 601.333 477.5C641.422 490.3 681.511 513.7 721.6 525.5C761.689 537.3 801.778 537.7 841.867 533.2C881.956 528.7 922.044 519.3 962.133 500.3C1002.22 481.3 1042.31 452.7 1082.4 440.2C1122.49 427.7 1162.58 431.3 1202.67 446.5C1242.76 461.7 1282.84 488.3 1322.93 500C1363.02 511.7 1403.11 508.3 1443.2 498.5C1483.29 488.7 1523.38 472.3 1563.47 473.8C1603.56 475.3 1643.64 494.7 1683.73 496.7C1723.82 498.7 1763.91 483.3 1783.96 475.7L1804 468" stroke="#DDA853" stroke-width="35" stroke-linecap="round"/>
</g>
<defs>
<clipPath id="clip0_5_181">
<rect width="1804" height="600" fill="white"/>
</clipPath>
</defs>
</svg>
